# xmcd CD database file
#
# Track frame offsets:
#	150
#	19063
#	32365
#	51483
#	68088
#	83728
#	100050
#	120998
#	143443
#	154010
#
# Disc length: 2239 seconds
#
# Revision: 2
# Processed by: cddbd v1.5.2PL0 Copyright (c) Steve Scherf et al.
# Submitted via: cdripper 1,0,33,916
#
DISCID=6f08bd0a
DTITLE=Alexis Korner - Got My Mojo Working
DYEAR=1994
DGENRE=Blues
TTITLE0=Robert Johnson
TTITLE1=Honky Tonk Woman
TTITLE2=I Got My Mojo Working
TTITLE3=King BB
TTITLE4=Im Your Hoochie Coochie Man
TTITLE5=I Got a Woman
TTITLE6=Operator
TTITLE7=Louisiana
TTITLE8=She Fooled Me
TTITLE9=Corina, Corina
EXTD=YEAR: 1994
EXTT0=
EXTT1=
EXTT2=
EXTT3=
EXTT4=
EXTT5=
EXTT6=
EXTT7=
EXTT8=
EXTT9=
PLAYORDER=
